<svg aria-hidden="true" style="position: absolute; width: 0; height: 0; overflow: hidden;" version="1.1" xmlns="http://www.w3.org/2000/svg" xmlns:xlink="http://www.w3.org/1999/xlink">
<defs>
<symbol id="icon-chevron-left" viewBox="0 0 24 24">
<path d="M15.707 17.293l-5.293-5.293 5.293-5.293c0.391-0.391 0.391-1.024 0-1.414s-1.024-0.391-1.414 0l-6 6c-0.391 0.391-0.391 1.024 0 1.414l6 6c0.391 0.391 1.024 0.391 1.414 0s0.391-1.024 0-1.414z"></path>
</symbol>
<symbol id="icon-chevron-right" viewBox="0 0 24 24">
<path d="M9.707 18.707l6-6c0.391-0.391 0.391-1.024 0-1.414l-6-6c-0.391-0.391-1.024-0.391-1.414 0s-0.391 1.024 0 1.414l5.293 5.293-5.293 5.293c-0.391 0.391-0.391 1.024 0 1.414s1.024 0.391 1.414 0z"></path>
</symbol>
<symbol id="icon-clock" viewBox="0 0 24 24">
<path d="M23 12c0-3.037-1.232-5.789-3.222-7.778s-4.741-3.222-7.778-3.222-5.789 1.232-7.778 3.222-3.222 4.741-3.222 7.778 1.232 5.789 3.222 7.778 4.741 3.222 7.778 3.222 5.789-1.232 7.778-3.222 3.222-4.741 3.222-7.778zM21 12c0 2.486-1.006 4.734-2.636 6.364s-3.878 2.636-6.364 2.636-4.734-1.006-6.364-2.636-2.636-3.878-2.636-6.364 1.006-4.734 2.636-6.364 3.878-2.636 6.364-2.636 4.734 1.006 6.364 2.636 2.636 3.878 2.636 6.364zM11 6v6c0 0.389 0.222 0.727 0.553 0.894l4 2c0.494 0.247 1.095 0.047 1.342-0.447s0.047-1.095-0.447-1.342l-3.448-1.723v-5.382c0-0.552-0.448-1-1-1s-1 0.448-1 1z"></path>
</symbol>
<symbol id="icon-trending-up" viewBox="0 0 24 24">
<path d="M17 7h3.586l-7.086 7.086-4.293-4.293c-0.391-0.391-1.024-0.391-1.414 0l-7.5 7.5c-0.391 0.391-0.391 1.024 0 1.414s1.024 0.391 1.414 0l6.793-6.793 4.293 4.293c0.391 0.391 1.024 0.391 1.414 0l7.793-7.793v3.586c0 0.552 0.448 1 1 1s1-0.448 1-1v-6c0-0.136-0.027-0.265-0.076-0.383s-0.121-0.228-0.216-0.323c-0.001-0.001-0.001-0.001-0.002-0.002-0.092-0.092-0.202-0.166-0.323-0.216-0.118-0.049-0.247-0.076-0.383-0.076h-6c-0.552 0-1 0.448-1 1s0.448 1 1 1z"></path>
</symbol>
<symbol id="icon-flag" viewBox="0 0 24 24">
<path d="M5 13.397v-9.859c0.44-0.218 1.365-0.538 3-0.538 1.281 0 2.361 0.421 3.629 0.928 1.232 0.493 2.652 1.072 4.371 1.072 1.298 0 2.278-0.175 3-0.397v9.859c-0.44 0.218-1.365 0.538-3 0.538-1.281 0-2.361-0.421-3.629-0.928-1.232-0.493-2.652-1.072-4.371-1.072-1.298 0-2.278 0.175-3 0.397zM5 22v-6.462c0.44-0.218 1.365-0.538 3-0.538 1.281 0 2.361 0.421 3.629 0.928 1.232 0.493 2.652 1.072 4.371 1.072 3.247 0 4.507-1.093 4.707-1.293 0.195-0.195 0.293-0.451 0.293-0.707v-12c0-0.552-0.448-1-1-1-0.265 0-0.506 0.103-0.685 0.272-0.096 0.078-0.984 0.728-3.315 0.728-1.281 0-2.361-0.421-3.629-0.928-1.232-0.493-2.652-1.072-4.371-1.072-3.247 0-4.507 1.093-4.707 1.293-0.195 0.195-0.293 0.451-0.293 0.707v19c0 0.552 0.448 1 1 1s1-0.448 1-1z"></path>
</symbol>
<symbol id="icon-heart" viewBox="0 0 32 32">
<path d="M29.193 5.265c-3.629-3.596-9.432-3.671-13.191-0.288-3.76-3.383-9.561-3.308-13.192 0.288-3.741 3.704-3.741 9.709 0 13.415 1.069 1.059 11.053 10.941 11.053 10.941 1.183 1.172 3.096 1.172 4.278 0 0 0 10.932-10.822 11.053-10.941 3.742-3.706 3.742-9.711-0.001-13.415zM27.768 17.268l-11.053 10.941c-0.393 0.391-1.034 0.391-1.425 0l-11.053-10.941c-2.95-2.92-2.95-7.671 0-10.591 2.844-2.815 7.416-2.914 10.409-0.222l1.356 1.22 1.355-1.22c2.994-2.692 7.566-2.594 10.41 0.222 2.95 2.919 2.95 7.67 0.001 10.591zM9.253 7.501c0.277 0 0.5 0.224 0.5 0.5s-0.224 0.5-0.5 0.5h-0.001c-1.794 0-3.249 1.455-3.249 3.249v0.001c0 0.276-0.224 0.5-0.5 0.5s-0.5-0.224-0.5-0.5v0c0-2.346 1.901-4.247 4.246-4.249 0.002 0 0.002-0.001 0.004-0.001z"></path>
</symbol>
<symbol id="icon-star" viewBox="0 0 32 32">
<path d="M31.881 12.557c-0.277-0.799-0.988-1.384-1.844-1.511l-8.326-1.238-3.619-7.514c-0.381-0.789-1.196-1.294-2.092-1.294s-1.711 0.505-2.092 1.294l-3.619 7.514-8.327 1.238c-0.855 0.127-1.566 0.712-1.842 1.511-0.275 0.801-0.067 1.683 0.537 2.285l6.102 6.092-1.415 8.451c-0.144 0.851 0.225 1.705 0.948 2.203 0.397 0.273 0.864 0.412 1.331 0.412 0.384 0 0.769-0.094 1.118-0.281l7.259-3.908 7.26 3.908c0.349 0.187 0.734 0.281 1.117 0.281 0.467 0 0.934-0.139 1.332-0.412 0.723-0.498 1.090-1.352 0.947-2.203l-1.416-8.451 6.104-6.092c0.603-0.603 0.81-1.485 0.537-2.285zM23.588 19.363c-0.512 0.51-0.744 1.229-0.627 1.934l1.416 8.451-7.26-3.906c-0.348-0.188-0.732-0.281-1.118-0.281-0.384 0-0.769 0.094-1.117 0.281l-7.26 3.906 1.416-8.451c0.118-0.705-0.114-1.424-0.626-1.934l-6.102-6.092 8.326-1.24c0.761-0.113 1.416-0.589 1.743-1.268l3.621-7.512 3.62 7.513c0.328 0.679 0.982 1.154 1.742 1.268l8.328 1.24-6.102 6.091z"></path>
</symbol>
<symbol id="icon-user" viewBox="0 0 32 32">
<path d="M31.11 28.336c-0.201-0.133-3.848-2.525-9.273-3.699 1.99-2.521 3.268-5.912 3.811-8.169 0.754-3.128 0.461-9.248-2.543-13.062-1.756-2.229-4.213-3.406-7.105-3.406s-5.349 1.178-7.104 3.406c-3.004 3.813-3.296 9.933-2.543 13.061 0.543 2.257 1.82 5.648 3.811 8.169-5.425 1.174-9.072 3.566-9.272 3.699-0.733 0.488-1.061 1.4-0.805 2.242 0.254 0.845 1.033 1.423 1.913 1.423h28c0.881 0 1.658-0.578 1.914-1.422 0.257-0.842-0.071-1.754-0.804-2.242zM20.267 23.398l-0.326 0.414c-2.385 2.74-5.495 2.74-7.879 0l-0.327-0.414c-2.785-3.529-4.167-8.197-3.572-12.65 0.545-4.279 2.997-8.748 7.837-8.748s7.293 4.47 7.838 8.749c0.593 4.455-0.784 9.118-3.571 12.649zM2 30c0.138-0.092 3.526-2.314 8.586-3.408l2.484-0.537c0.887 0.582 1.86 0.945 2.93 0.945 1.071 0 2.043-0.363 2.93-0.945l2.484 0.537c5.020 1.086 8.396 3.283 8.586 3.408h-28z"></path>
</symbol>
<symbol id="icon-location" viewBox="0 0 32 32">
<path d="M16.002 17.746c3.309 0 6-2.692 6-6s-2.691-6-6-6c-3.309 0-6 2.691-6 6s2.691 6 6 6zM16.002 6.746c2.758 0 5 2.242 5 5s-2.242 5-5 5c-2.758 0-5-2.242-5-5s2.242-5 5-5zM16 0c-6.618 0-12 5.316-12 12.001 0 7 6.001 14.161 10.376 19.194 0.016 0.020 0.718 0.805 1.586 0.805 0.002 0 0.073 0 0.077 0 0.867 0 1.57-0.785 1.586-0.805 4.377-5.033 10.377-12.193 10.377-19.194 0-6.685-5.383-12.001-12.002-12.001zM16.117 29.883c-0.021 0.020-0.082 0.064-0.135 0.098-0.010-0.027-0.084-0.086-0.129-0.133-3.665-4.217-9.853-11.334-9.853-17.847 0-5.514 4.487-10.001 10-10.001 5.516 0 10.002 4.487 10.002 10.002 0 6.512-6.188 13.629-9.885 17.881z"></path>
</symbol>
<symbol id="icon-photo" viewBox="0 0 32 32">
<path d="M27 0h-22c-2.209 0-4 1.791-4 4v24c0 2.209 1.791 4 4 4h22c2.209 0 4-1.791 4-4v-24c0-2.209-1.791-4-4-4zM29 28c0 1.102-0.898 2-2 2h-22c-1.103 0-2-0.898-2-2v-24c0-1.103 0.897-2 2-2h22c1.102 0 2 0.897 2 2v24zM26 4h-20c-0.553 0-1 0.447-1 1v18c0 0.553 0.447 1 1 1h20c0.553 0 1-0.447 1-1v-18c0-0.553-0.447-1-1-1zM26 5v13.869l-3.25-3.53c-0.191-0.216-0.463-0.339-0.75-0.339s-0.561 0.123-0.75 0.339l-2.604 2.95-7.896-8.95c-0.19-0.216-0.463-0.339-0.75-0.339s-0.56 0.123-0.75 0.339l-3.25 3.748v-8.087h20zM6 14.6l4-4.6 8.646 9.801 2.762 3.199h-15.408v-8.4zM22.74 23l-3.428-3.955 2.688-3.045 4 4.379v2.621h-3.26zM20 13c1.656 0 3-1.343 3-3s-1.344-3-3-3c-1.658 0-3 1.343-3 3s1.342 3 3 3zM20 8c1.102 0 2 0.897 2 2s-0.898 2-2 2c-1.104 0-2-0.897-2-2s0.896-2 2-2z"></path>
</symbol>
<symbol id="icon-calendar" viewBox="0 0 32 32">
<path d="M29.334 3h-4.334v-2c0-0.553-0.447-1-1-1s-1 0.447-1 1v2h-6v-2c0-0.553-0.448-1-1-1s-1 0.447-1 1v2h-6v-2c0-0.553-0.448-1-1-1s-1 0.447-1 1v2h-4.333c-1.473 0-2.667 1.193-2.667 2.666v23.667c0 1.473 1.194 2.667 2.667 2.667h26.667c1.473 0 2.666-1.194 2.666-2.667v-23.667c0-1.473-1.193-2.666-2.666-2.666zM30 29.333c0 0.368-0.299 0.667-0.666 0.667h-26.667c-0.368 0-0.667-0.299-0.667-0.667v-23.667c0-0.367 0.299-0.666 0.667-0.666h4.333v2c0 0.553 0.448 1 1 1s1-0.447 1-1v-2h6v2c0 0.553 0.448 1 1 1s1-0.447 1-1v-2h6v2c0 0.553 0.447 1 1 1s1-0.447 1-1v-2h4.334c0.367 0 0.666 0.299 0.666 0.666v23.667zM7 12h4v3h-4zM7 17h4v3h-4zM7 22h4v3h-4zM14 22h4v3h-4zM14 17h4v3h-4zM14 12h4v3h-4zM21 22h4v3h-4zM21 17h4v3h-4zM21 12h4v3h-4z"></path>
</symbol>
<symbol id="icon-world" viewBox="0 0 32 32">
<path d="M15.5 0c-8.561 0-15.5 6.939-15.5 15.5s6.939 15.5 15.5 15.5 15.5-6.939 15.5-15.5-6.939-15.5-15.5-15.5zM28.975 15h-5.996c-0.055-2.215-0.449-4.331-1.148-6.268 1.35-0.563 2.598-1.312 3.736-2.197 2.023 2.271 3.288 5.22 3.408 8.465zM14.947 28.972c-1.662-1.384-3.056-3.181-4.076-5.268 1.309-0.409 2.696-0.633 4.129-0.679v5.949c-0.018 0-0.035-0.001-0.053-0.002zM16.051 2.028c1.886 1.57 3.425 3.673 4.466 6.126-1.426 0.487-2.941 0.77-4.518 0.82v-6.949c0.019 0.001 0.035 0.002 0.052 0.003zM17.717 2.198c2.76 0.459 5.236 1.748 7.164 3.614-1.047 0.803-2.191 1.483-3.428 1.998-0.91-2.157-2.187-4.064-3.736-5.612zM15 2.025v6.949c-1.577-0.051-3.093-0.333-4.518-0.82 1.041-2.453 2.58-4.556 4.466-6.126 0.018-0.001 0.034-0.002 0.052-0.003zM9.546 7.811c-1.235-0.515-2.38-1.195-3.427-1.998 1.927-1.866 4.404-3.155 7.164-3.614-1.55 1.547-2.826 3.454-3.737 5.612zM10.105 9.076c1.542 0.535 3.185 0.847 4.895 0.899v5.025h-5.979c0.054-2.094 0.425-4.095 1.084-5.924zM15 16v6.025c-1.577 0.048-3.102 0.306-4.539 0.769-0.866-2.062-1.377-4.359-1.44-6.794h5.979zM13.283 28.802c-2.473-0.411-4.719-1.488-6.545-3.052 0.985-0.683 2.050-1.261 3.188-1.7 0.872 1.808 2.013 3.413 3.357 4.752zM16 28.975v-5.949c1.432 0.046 2.82 0.27 4.129 0.679-1.021 2.087-2.414 3.884-4.076 5.268-0.017 0-0.035 0.001-0.053 0.002zM21.074 24.050c1.137 0.439 2.201 1.018 3.188 1.7-1.826 1.563-4.072 2.641-6.545 3.052 1.344-1.339 2.484-2.944 3.357-4.752zM20.539 22.794c-1.438-0.463-2.963-0.721-4.539-0.769v-6.025h5.979c-0.063 2.435-0.575 4.732-1.44 6.794zM16 15v-5.025c1.709-0.052 3.352-0.363 4.895-0.898 0.658 1.829 1.029 3.83 1.084 5.924h-5.979zM5.434 6.535c1.138 0.885 2.386 1.634 3.735 2.197-0.699 1.937-1.093 4.053-1.148 6.268h-5.996c0.12-3.245 1.385-6.194 3.409-8.465zM2.025 16h5.996c0.062 2.555 0.596 4.968 1.503 7.137-1.267 0.494-2.448 1.152-3.538 1.931-2.348-2.337-3.83-5.532-3.961-9.068zM25.014 25.067c-1.090-0.778-2.271-1.437-3.539-1.931 0.908-2.169 1.441-4.582 1.504-7.137h5.996c-0.131 3.537-1.614 6.732-3.961 9.068z"></path>
</symbol>
<symbol id="icon-mail" viewBox="0 0 20 20">
<path d="M1.574 5.286c0.488 0.262 7.248 3.894 7.5 4.029s0.578 0.199 0.906 0.199c0.328 0 0.654-0.064 0.906-0.199s7.012-3.767 7.5-4.029c0.489-0.263 0.951-1.286 0.054-1.286h-16.919c-0.897 0-0.435 1.023 0.053 1.286zM18.613 7.489c-0.555 0.289-7.387 3.849-7.727 4.027s-0.578 0.199-0.906 0.199-0.566-0.021-0.906-0.199-7.133-3.739-7.688-4.028c-0.39-0.204-0.386 0.035-0.386 0.219s0 7.293 0 7.293c0 0.42 0.566 1 1 1h16c0.434 0 1-0.58 1-1 0 0 0-7.108 0-7.292s0.004-0.423-0.387-0.219z"></path>
</symbol>
<symbol id="icon-old-phone" viewBox="0 0 20 20">
<path d="M17.256 12.253c-0.096-0.667-0.611-1.187-1.274-1.342-2.577-0.604-3.223-2.088-3.332-3.734-0.457-0.085-1.27-0.177-2.65-0.177s-2.193 0.092-2.65 0.177c-0.109 1.646-0.755 3.13-3.332 3.734-0.663 0.156-1.178 0.675-1.274 1.342l-0.497 3.442c-0.175 1.212 0.715 2.305 1.953 2.305h11.6c1.237 0 2.128-1.093 1.953-2.305l-0.497-3.442zM10 15.492c-1.395 0-2.526-1.12-2.526-2.5s1.131-2.5 2.526-2.5 2.526 1.12 2.526 2.5-1.132 2.5-2.526 2.5zM19.95 6c-0.024-1.5-3.842-3.999-9.95-4-6.109 0.001-9.927 2.5-9.95 4s0.021 3.452 2.535 3.127c2.941-0.381 2.76-1.408 2.76-2.876 0-1.024 2.392-1.271 4.655-1.271s4.654 0.247 4.655 1.271c0 1.468-0.181 2.495 2.76 2.876 2.513 0.325 2.558-1.627 2.535-3.127z"></path>
</symbol>
<symbol id="icon-facebook" viewBox="0 0 20 20">
<path d="M17 1h-14c-1.1 0-2 0.9-2 2v14c0 1.101 0.9 2 2 2h7v-7h-2v-2.475h2v-2.050c0-2.164 1.212-3.684 3.766-3.684l1.803 0.002v2.605h-1.197c-0.994 0-1.372 0.746-1.372 1.438v1.69h2.568l-0.568 2.474h-2v7h4c1.1 0 2-0.899 2-2v-14c0-1.1-0.9-2-2-2z"></path>
</symbol>
<symbol id="icon-instagram-with-circle" viewBox="0 0 20 20">
<path d="M13 10c0 1.657-1.343 3-3 3s-3-1.343-3-3c0-0.171 0.018-0.338 0.049-0.5h-1.049v3.997c0 0.278 0.225 0.503 0.503 0.503h6.995c0.277 0 0.502-0.225 0.502-0.503v-3.997h-1.049c0.031 0.162 0.049 0.329 0.049 0.5zM10 12c1.104 0 2-0.896 2-2s-0.896-2-2-2-2 0.896-2 2 0.896 2 2 2zM12.4 7.9h1.199c0.166 0 0.301-0.135 0.301-0.3v-1.199c0-0.166-0.135-0.301-0.301-0.301h-1.199c-0.166 0-0.301 0.135-0.301 0.301v1.199c0.001 0.165 0.136 0.3 0.301 0.3zM10 0.4c-5.302 0-9.6 4.298-9.6 9.6s4.298 9.6 9.6 9.6c5.302 0 9.6-4.298 9.6-9.6s-4.298-9.6-9.6-9.6zM15 13.889c0 0.611-0.5 1.111-1.111 1.111h-7.778c-0.611 0-1.111-0.5-1.111-1.111v-7.778c0-0.611 0.5-1.111 1.111-1.111h7.778c0.611 0 1.111 0.5 1.111 1.111v7.778z"></path>
</symbol>
<symbol id="icon-twitter" viewBox="0 0 20 20">
<path d="M17.316 6.246c0.008 0.162 0.011 0.326 0.011 0.488 0 4.99-3.797 10.742-10.74 10.742-2.133 0-4.116-0.625-5.787-1.697 0.296 0.035 0.596 0.053 0.9 0.053 1.77 0 3.397-0.604 4.688-1.615-1.651-0.031-3.046-1.121-3.526-2.621 0.23 0.043 0.467 0.066 0.71 0.066 0.345 0 0.679-0.045 0.995-0.131-1.727-0.348-3.028-1.873-3.028-3.703 0-0.016 0-0.031 0-0.047 0.509 0.283 1.092 0.453 1.71 0.473-1.013-0.678-1.68-1.832-1.68-3.143 0-0.691 0.186-1.34 0.512-1.898 1.861 2.285 4.644 3.787 7.781 3.945-0.064-0.277-0.097-0.564-0.097-0.861 0-2.084 1.689-3.773 3.774-3.773 1.086 0 2.067 0.457 2.756 1.191 0.859-0.17 1.667-0.484 2.397-0.916-0.282 0.881-0.881 1.621-1.66 2.088 0.764-0.092 1.49-0.293 2.168-0.594-0.506 0.758-1.146 1.422-1.884 1.953z"></path>
</symbol>
<symbol id="icon-youtube" viewBox="0 0 20 20">
<path d="M10 2.3c-9.828 0-10 0.874-10 7.7s0.172 7.7 10 7.7 10-0.874 10-7.7-0.172-7.7-10-7.7zM13.205 10.334l-4.49 2.096c-0.393 0.182-0.715-0.022-0.715-0.456v-3.948c0-0.433 0.322-0.638 0.715-0.456l4.49 2.096c0.393 0.184 0.393 0.484 0 0.668z"></path>
</symbol>
<symbol id="icon-star-full" viewBox="0 0 32 32">
<path d="M32 12.408l-11.056-1.607-4.944-10.018-4.944 10.018-11.056 1.607 8 7.798-1.889 11.011 9.889-5.199 9.889 5.199-1.889-11.011 8-7.798z"></path>
</symbol>
</defs>
</svg>
