<svg xmlns="http://www.w3.org/2000/svg" style="display: none;"><symbol id="star" viewBox="0 0 512.002 512.002"><title>star</title><path d="M511.267,197.258c-1.764-5.431-6.457-9.389-12.107-10.209l-158.723-23.065L269.452,20.157 c-2.526-5.12-7.741-8.361-13.45-8.361c-5.71,0-10.924,3.241-13.451,8.361l-70.988,143.827l-158.72,23.065 c-5.649,0.82-10.344,4.778-12.108,10.208c-1.765,5.431-0.293,11.392,3.796,15.377l114.848,111.954L92.271,482.671 c-0.966,5.628,1.348,11.314,5.967,14.671c2.613,1.898,5.708,2.864,8.818,2.864c2.388,0,4.784-0.569,6.978-1.723l141.967-74.638 l141.961,74.637c5.055,2.657,11.178,2.215,15.797-1.141c4.619-3.356,6.934-9.044,5.969-14.672l-27.117-158.081l114.861-111.955 C511.56,208.649,513.033,202.688,511.267,197.258z"/></symbol><symbol id="settings" viewBox="0 0 24 24"><title>settings</title><path d="m22.683 9.394-1.88-.239c-.155-.477-.346-.937-.569-1.374l1.161-1.495c.47-.605.415-1.459-.122-1.979l-1.575-1.575c-.525-.542-1.379-.596-1.985-.127l-1.493 1.161c-.437-.223-.897-.414-1.375-.569l-.239-1.877c-.09-.753-.729-1.32-1.486-1.32h-2.24c-.757 0-1.396.567-1.486 1.317l-.239 1.88c-.478.155-.938.345-1.375.569l-1.494-1.161c-.604-.469-1.458-.415-1.979.122l-1.575 1.574c-.542.526-.597 1.38-.127 1.986l1.161 1.494c-.224.437-.414.897-.569 1.374l-1.877.239c-.753.09-1.32.729-1.32 1.486v2.24c0 .757.567 1.396 1.317 1.486l1.88.239c.155.477.346.937.569 1.374l-1.161 1.495c-.47.605-.415 1.459.122 1.979l1.575 1.575c.526.541 1.379.595 1.985.126l1.494-1.161c.437.224.897.415 1.374.569l.239 1.876c.09.755.729 1.322 1.486 1.322h2.24c.757 0 1.396-.567 1.486-1.317l.239-1.88c.477-.155.937-.346 1.374-.569l1.495 1.161c.605.47 1.459.415 1.979-.122l1.575-1.575c.542-.526.597-1.379.127-1.985l-1.161-1.494c.224-.437.415-.897.569-1.374l1.876-.239c.753-.09 1.32-.729 1.32-1.486v-2.24c.001-.757-.566-1.396-1.316-1.486zm-10.683 7.606c-2.757 0-5-2.243-5-5s2.243-5 5-5 5 2.243 5 5-2.243 5-5 5z"/></symbol><symbol id="briefcase" viewBox="0 0 512 512"><title>briefcase</title><path d="M469.333,106.667H362.667V85.333c0-23.531-19.135-42.667-42.667-42.667H192c-23.531,0-42.667,19.135-42.667,42.667 v21.333H42.667C19.135,106.667,0,125.802,0,149.333v64C0,236.865,19.135,256,42.667,256h170.667v-10.667 c0-5.896,4.771-10.667,10.667-10.667h64c5.896,0,10.667,4.771,10.667,10.667V256h170.667C492.865,256,512,236.865,512,213.333 v-64C512,125.802,492.865,106.667,469.333,106.667z M320,106.667H192V85.333h128V106.667z"/><path d="M506.083,267.51c-3.635-1.802-7.979-1.385-11.188,1.052c-7.583,5.74-16.417,8.771-25.563,8.771H298.667v32 c0,5.896-4.771,10.667-10.667,10.667h-64c-5.896,0-10.667-4.771-10.667-10.667v-32H42.667c-9.146,0-17.979-3.031-25.563-8.771 c-3.219-2.458-7.552-2.875-11.188-1.052C2.292,269.313,0,273.01,0,277.063v149.604c0,23.531,19.135,42.667,42.667,42.667h426.667 c23.531,0,42.667-19.135,42.667-42.667V277.063C512,273.01,509.708,269.313,506.083,267.51z"/></symbol><symbol id="credit-card" viewBox="0 0 512 512"><title>credit-card</title><path d="m512 163v-27c0-30.928-25.072-56-56-56h-400c-30.928 0-56 25.072-56 56v27c0 2.761 2.239 5 5 5h502c2.761 0 5-2.239 5-5z"/><path d="m0 205v171c0 30.928 25.072 56 56 56h400c30.928 0 56-25.072 56-56v-171c0-2.761-2.239-5-5-5h-502c-2.761 0-5 2.239-5 5zm128 131c0 8.836-7.164 16-16 16h-16c-8.836 0-16-7.164-16-16v-16c0-8.836 7.164-16 16-16h16c8.836 0 16 7.164 16 16z"/></symbol></svg>